# AST/ASF file generated using VICON BodyLanguage
# -----------------------------------------------
:version 1.10
:name VICON
:units
  mass 1.0
  length 0.45
  angle deg
:documentation
   .ast/.asf automatically generated from VICON data using
   VICON BodyBuilder and BodyLanguage model FoxedUp or BRILLIANT.MOD
:root
   order TX TY TZ RX RY RZ
   axis XYZ
   position 0 0 0  
   orientation 0 -0 0 
:bonedata
  begin
     id 1 
     name lhipjoint
     direction 0.432694 -0.693742 0.575759 
     length 2.19277 
     axis 0 -0 0  XYZ
  end
  begin
     id 2 
     name lfemur
     direction 0.34202 -0.939693 0  
     length 6.69022  
     axis 0 -0 20  XYZ
    dof rx ry rz
    limits (-160.0 20.0)
           (-70.0 70.0)
           (-60.0 70.0)
  end
  begin
     id 3 
     name ltibia
     direction 0.34202 -0.939693 0   
     length 6.50337   
     axis 0 -0 20   XYZ
    dof rx
    limits (-10.0 170.0)
  end
  begin
     id 4 
     name lfoot
     direction 0.158999 -0.435969 0.885805   
     length 2.70564   
     axis -90 -1.13533e-015 20   XYZ
    dof rx rz
    limits (-45.0 90.0)
           (-70.0 20.0)
  end
  begin
     id 5 
     name ltoes
     direction -0.00592919 0.00964381 0.999936   
     length 1.29929   
     axis -90 -1.13533e-015 20   XYZ
    dof rx
    limits (-90.0 20.0)
  end
  begin
     id 6 
     name rhipjoint
     direction -0.414359 -0.700339 0.581234   
     length 2.17212  
     axis 0 -0 0  XYZ 
  end
  begin
     id 7 
     name rfemur
     direction -0.34202 -0.939693 0   
     length 7.17659   
     axis 0 -0 -20   XYZ
    dof rx ry rz
    limits (-160.0 20.0)
           (-70.0 70.0)
           (-70.0 60.0)
  end
  begin
     id 8 
     name rtibia
     direction -0.34202 -0.939693 0   
     length 6.36669   
     axis 0 -0 -20   XYZ
    dof rx
    limits (-10.0 170.0)
 end
 begin
     id 9 
     name rfoot
     direction -0.137064 -0.37658 0.916188   
     length 2.22351  
     axis -90 1.13533e-015 -20   XYZ
    dof rx rz
    limits (-45.0 90.0)
           (-20.0 70.0)
  end
  begin
     id 10 
     name rtoes
     direction -0.000784077 -0.00289101 0.999996   
     length 1.09522   
     axis -90 1.13533e-015 -20   XYZ
    dof rx
    limits (-90.0 20.0)
  end
  begin
     id 11 
     name lowerback
     direction -0.0176242 0.984912 -0.172157   
     length 1.65301   
     axis 0 -0 0   XYZ
    dof rx ry rz
    limits (-20.0 45.0)
           (-30.0 30.0)
           (-30.0 30.0)
  end
  begin
     id 12 
     name upperback
     direction -0.00218128 0.998776 -0.0494072   
     length 1.67776   
     axis 0 -0 0   XYZ
    dof rx ry rz
    limits (-20.0 45.0)
           (-30.0 30.0)
           (-30.0 30.0)
  end
  begin
     id 13 
     name thorax
     direction 0.00544186 0.999658 0.0255711   
     length 1.72293   
     axis 0 -0 0   XYZ
    dof rx ry rz
    limits (-20.0 45.0)
           (-30.0 30.0)
           (-30.0 30.0)
  end
  begin
     id 14 
     name lowerneck
     direction -0.105325 0.983841 0.144785   
     length 2.14226   
     axis 0 -0 0   XYZ
    dof rx ry rz
    limits (-20.0 45.0)
           (-30.0 30.0)
           (-30.0 30.0)
  end
  begin
     id 15 
     name upperneck
     direction 0.0547957 0.988053 -0.144041   
     length 2.17508   
     axis 0 -0 0   XYZ
    dof rx ry rz
    limits (-20.0 45.0)
           (-30.0 30.0)
           (-30.0 30.0)
  end
  begin
     id 16
     name head
     direction 0.0247488 0.997534 -0.0656813  
     length 2.20048  
     axis 0 -0 0   XYZ
    dof rx ry rz
    limits (-20.0 45.0)
           (-30.0 30.0)
           (-30.0 30.0)
  end
  begin
     id 17 
     name lclavicle
     direction 0.820559 0.567247 -0.0701026  
     length 4.09615  
     axis 0 -0 0   XYZ
    dof ry rz
    limits (-20.0 10.0)
           (0.0 20.0)
  end
  begin
     id 18 
     name lhumerus
     direction 0.999977 -0.0067566 -9.96392e-005   
     length 4.59333   
     axis -180 -30 -90   XYZ
    dof rx ry rz
    limits (-60.0 90.0)
           (-90.0 90.0)
           (-90.0 90.0)
  end
  begin
     id 19
     name lradius
     direction 1 -4.48982e-011 -2.53425e-027   
     length 2.81151   
     axis -180 -30 -90   XYZ
    dof rx
    limits (-10.0 170.0)
  end
  begin
     id 20
     name lwrist
     direction 1 -4.48939e-011 -7.39254e-028   
     length 1.40576   
     axis 2.56395e-016 90 90   XYZ
    dof ry
    limits (-180.0 0.0)
 end
  begin
     id 21 
     name lhand
     direction 1 -4.48939e-011 -1.47851e-027   
     length 0.895651   
     axis 9.43423e-016 90 90   XYZ
    dof rx rz
    limits (-90.0 90.0)
           (-45.0 45.0)
  end
  begin
     id 22 
     name lfingers
     direction 1 -4.48978e-011 -2.95702e-027   
     length 0.722097   
     axis 1.88685e-015 90 90   XYZ
    dof rx
    limits (0.0 90.0)
  end
  begin
     id 23
     name lthumb
     direction 0.707107 -6.34931e-011 0.707107   
     length 1.03679   
     axis -90 45 -9.86935e-015   XYZ
    dof rx rz
    limits (-45.0 45.0)
           (-45.0 45.0)
  end
  begin
     id 24 
     name rclavicle
     direction -0.831414 0.553102 -0.0531864   
     length 4.24872  
     axis 0 -0 0   XYZ 
    dof ry rz
    limits (-10.0 20.0)
           (-20.0 0.0)
  end
  begin
     id 25 
     name rhumerus
     direction -0.999916 -0.000939607 0.0129331  
     length 4.74834   
     axis -180 30 90   XYZ
    dof rx ry rz
    limits (-90.0 60.0)
           (-90.0 90.0)
           (-90.0 90.0)
  end
  begin
     id 26 
     name rradius
     direction -1 -4.48956e-011 -1.31752e-027   
     length 2.79907   
     axis -180 30 90   XYZ
    dof rx
    limits (-10.0 170.0)
  end
  begin
     id 27 
     name rwrist
     direction -1 -4.4897e-011 -7.39254e-028   
     length 1.39954   
     axis 2.56395e-016 -90 -90   XYZ
    dof ry
    limits (-180.0 0.0)
  end
  begin
     id 28
     name rhand
     direction -0.999997 -0.00250697 0.000800838   
     length 0.953304   
     axis 9.43423e-016 -90 -90   XYZ
    dof rx rz
    limits (-90.0 90.0)
           (-45.0 45.0)
  end
  begin
     id 29
     name rfingers
     direction -1 -4.48954e-011 -2.95702e-027   
     length 0.763342   
     axis 1.88685e-015 -90 -90   XYZ
    dof rx
    limits (0.0 90.0)
  end
  begin
     id 30
     name rthumb
     direction -0.709701 -0.00217037 0.7045   
     length 1.10115   
     axis -90 -45 9.86935e-015   XYZ
    dof rx rz
    limits (-45.0 45.0)
           (-45.0 45.0)
  end
:hierarchy
  begin
    root lhipjoint rhipjoint lowerback
    lhipjoint lfemur
    lfemur ltibia
    ltibia lfoot
    lfoot ltoes
    rhipjoint rfemur
    rfemur rtibia
    rtibia rfoot
    rfoot rtoes
    lowerback upperback
    upperback thorax
    thorax lowerneck lclavicle rclavicle
    lowerneck upperneck
    upperneck head
    lclavicle lhumerus
    lhumerus lradius
    lradius lwrist
    lwrist lhand lthumb
    lhand lfingers
    rclavicle rhumerus
    rhumerus rradius
    rradius rwrist
    rwrist rhand rthumb
    rhand rfingers
  end

#!OML:ASF G:\ViconDB\ViconDB\414\test\team2\shane.ASF
:FULLY-SPECIFIED
:DEGREES
65
root 4.25998 24.8935 -17.1072 -3.45841 1.58094 -7.5436
lowerback 20.0782 3.10236 22.3197
upperback -2.32349 9.71538 0.578608
thorax -9.91644 3.35459 -13.6802
lowerneck -8.16305 -11.6869 -26.6813
upperneck 16.0036 -15.2017 16.7913
head 9.83932 -7.56671 8.22386
rclavicle 5.66101e-014 3.26007e-014
rhumerus 15.1726 -30.2986 366.289
rradius 85.6163
rwrist 7.37502
rhand -42.5835 -23.6219
rfingers 7.12502
rthumb -15.4572 -53.0239
lclavicle 5.66101e-014 3.26007e-014
lhumerus -106.744 -197.506 227.352
lradius 62.5492
lwrist 1.82255
lhand -55.1971 21.4647
lfingers 7.12502
lthumb -27.5686 49.4657
rfemur 9.937 -16.4287 17.9446
rtibia 22.5526
rfoot 1.65629 6.1937
rtoes -9.79848
lfemur 6.23717 10.0188 -4.00248
ltibia 30.79
lfoot -5.62763 -20.4521
ltoes -2.4978
66
root 4.27002 24.9597 -17.1069 -3.50762 1.68927 -7.36837
lowerback 19.9075 3.15564 22.2109
upperback -2.13395 9.67487 0.509518
thorax -9.63196 3.39651 -13.6565
lowerneck -8.23052 -11.6724 -26.3058
upperneck 15.8126 -15.1709 16.6535
head 9.73095 -7.5321 8.11003
rclavicle 6.14742e-014 2.46493e-014
rhumerus 39.0795 -28.1134 353.835
rradius 66.5194
rwrist 22.799
rhand -40.1712 -25.9426
rfingers 7.12502
rthumb -13.1328 -55.509
lclavicle 6.14742e-014 2.46493e-014
lhumerus -106.902 -197.17 227.345
lradius 63.3456
lwrist 1.86475
lhand -54.7855 21.2615
lfingers 7.12502
lthumb -27.175 49.3247
rfemur 9.86092 -15.9026 17.8836
rtibia 22.3979
rfoot 1.33099 5.66101
rtoes -9.59064
lfemur 6.14383 9.94585 -4.17038
ltibia 30.6018
lfoot -5.99692 -20.4365
ltoes -2.92579
67
root 4.28107 25.01 -17.1081 -3.547 1.81573 -7.17334
lowerback 19.9025 3.12716 22.0968
upperback -2.05896 9.59751 0.51794
thorax -9.59201 3.37771 -13.5717
lowerneck -8.16708 -11.6019 -26.286
upperneck 15.7276 -15.0592 16.5595
head 9.65246 -7.48688 8.09267
rclavicle -1.21097e-013 -3.33958e-014
rhumerus 39.0795 -28.1134 353.835
rradius 66.5194
rwrist 22.799
rhand -40.1712 -25.9426
rfingers 7.12502
rthumb -13.1328 -55.509
lclavicle -1.21097e-013 -3.33958e-014
lhumerus -107.271 -196.877 227.439
lradius 63.9957
lwrist 2.1299
lhand -53.9671 21.4523
lfingers 7.12502
lthumb -26.3918 49.6354
rfemur 9.74332 -15.5443 17.7516
rtibia 22.2224
rfoot 1.00422 5.13362
rtoes -9.56222
lfemur 5.99766 10.0685 -4.32723
ltibia 30.4115
lfoot -6.17249 -20.4237
ltoes -2.86193
68
root 4.29313 25.0453 -17.1095 -3.58395 1.91316 -6.88434
lowerback 19.8866 3.1169 21.9518
upperback -1.96817 9.51392 0.365009
thorax -9.50823 3.36215 -13.6491
lowerneck -7.44221 -10.9919 -26.1006
upperneck 15.0006 -14.4525 17.1379
head 9.15859 -7.1781 8.41748
rclavicle 3.89991e-014 2.06736e-014
rhumerus 39.0795 -28.1134 353.835
rradius 66.5194
rwrist 22.799
rhand -40.1712 -25.9426
rfingers 7.12502
rthumb -13.1328 -55.509
lclavicle 3.89991e-014 2.06736e-014
lhumerus -107.65 -196.487 226.994
lradius 64.5819
lwrist 2.4707
lhand -53.7736 19.4671
lfingers 7.12502
lthumb -26.2066 47.6779
rfemur 9.64383 -15.1175 17.4947
rtibia 22.023
rfoot 0.811879 4.71936
rtoes -9.40221
lfemur 5.88399 10.0768 -4.58523
ltibia 30.2211
lfoot -6.18833 -20.3401
ltoes -3.15784
69
root 4.30568 25.0644 -17.1124 -3.57428 1.99781 -6.64389
lowerback 19.6146 3.17096 21.6934
upperback -1.69926 9.41445 0.39994
thorax -9.14473 3.40146 -13.4076
lowerneck -8.15022 -11.5205 -25.8552
upperneck 15.1409 -14.9525 16.5673
head 9.3838 -7.40105 8.03559
rclavicle 2.99544e-014 -2.46493e-014
rhumerus 13.8216 -29.7594 366.602
rradius 87.4781
rwrist 11.6496
rhand -39.6113 -25.1964
rfingers 7.12502
rthumb -12.5931 -54.7968
lclavicle 2.99544e-014 -2.46493e-014
lhumerus -108.016 -196.331 226.884
lradius 65.3519
lwrist 2.72595
lhand -53.2595 19.3056
lfingers 7.12502
lthumb -25.7143 47.5885
rfemur 9.4336 -14.6894 17.312
rtibia 21.8173
rfoot 0.829509 4.27311
rtoes -8.7049
lfemur 5.70793 10.3301 -4.70737
ltibia 30.0247
lfoot -6.09093 -20.3916
ltoes -3.29511
70
root 4.31888 25.0698 -17.118 -3.51188 2.17112 -6.54633
lowerback 16.7839 2.52825 10.0874
upperback 1.35208 5.83582 7.14497
thorax -7.74339 2.6039 0.7164
lowerneck -16.6912 -10.2888 -27.9371
upperneck 16.6104 -9.60943 12.9049
head 10.1058 -5.02177 7.67511
rclavicle -3.65764e-014 -9.54166e-014
rhumerus 52.186 -27.7281 350.14
rradius 67.638
rwrist 23.6021
rhand -40.3094 -24.3008
rfingers 7.12502
rthumb -13.2661 -53.8587
lclavicle -3.65764e-014 -9.54166e-014
lhumerus -115.339 -206.393 227.195
lradius 65.6874
lwrist 1.9838
lhand -53.1286 18.8085
lfingers 7.12502
lthumb -25.5889 47.1095
rfemur 9.15073 -14.3525 17.2992
rtibia 21.6454
rfoot 0.824715 3.72557
rtoes -8.5523
lfemur 5.43552 10.5416 -4.68773
ltibia 29.8067
lfoot -5.85584 -20.4101
ltoes -3.36772
71
root 4.33064 25.0592 -17.1217 -3.45516 2.2762 -6.27045
lowerback 16.7439 2.53223 9.91702
upperback 1.37675 5.79438 7.07702
thorax -7.70419 2.59102 0.746593
lowerneck -16.9218 -10.6 -27.5404
upperneck 16.4127 -9.9565 12.3973
head 10.0999 -5.18583 7.33737
rclavicle 3.20043e-014 3.65764e-014
rhumerus 51.0747 -27.552 351.004
rradius 68.4469
rwrist 22.9313
rhand -40.226 -24.5859
rfingers 7.12502
rthumb -13.1856 -54.1489
lclavicle 3.20043e-014 3.65764e-014
lhumerus -116.001 -205.8 226.818
lradius 66.0638
lwrist 1.30639
lhand -53.1386 19.5526
lfingers 7.12502
lthumb -25.5985 47.8522
rfemur 8.89911 -14.0875 17.0264
rtibia 21.4632
rfoot 0.823713 3.24591
rtoes -8.16642
lfemur 5.2193 10.5848 -4.89534
ltibia 29.5936
lfoot -5.66138 -20.2302
ltoes -3.20256
72
root 4.34247 25.0259 -17.125 -3.44149 2.32924 -6.1562
lowerback 16.6266 2.52009 9.84085
upperback 1.48326 5.73892 7.14536
thorax -7.53913 2.57783 0.88124
lowerneck -16.4716 -10.3758 -27.6962
upperneck 15.4906 -9.74491 12.6532
head 9.66727 -5.04753 7.48738
rclavicle 2.64384e-014 3.81667e-014
rhumerus 51.3358 -26.7102 350.658
rradius 68.345
rwrist 23.2447
rhand -40.4345 -24.1114
rfingers 7.12502
rthumb -13.3866 -53.6613
lclavicle 2.64384e-014 3.81667e-014
lhumerus -116.848 -205.266 226.352
lradius 66.7307
lwrist 1.23517
lhand -53.0228 19.4999
lfingers 7.12502
lthumb -25.4875 47.8154
rfemur 8.68239 -14.1851 16.8292
rtibia 21.2911
rfoot 0.872945 3.20223
rtoes -7.93892
lfemur 5.04912 10.9794 -4.83986
ltibia 29.3741
lfoot -5.63761 -20.1931
ltoes -3.39837
73
root 4.35014 24.9844 -17.1313 -3.30956 2.5065 -6.20773
lowerback 16.4926 2.48802 9.82675
upperback 1.50182 5.67527 7.1834
thorax -7.45271 2.55303 0.950593
lowerneck -15.9903 -10.1825 -27.5641
upperneck 14.7233 -9.62791 12.7122
head 9.28231 -4.96226 7.50437
rclavicle -2.92213e-014 -7.95139e-015
rhumerus 50.505 -26.0747 351.365
rradius 69.0003
rwrist 22.4691
rhand -40.2843 -24.7937
rfingers 7.12502
rthumb -13.2419 -54.3531
lclavicle -2.92213e-014 -7.95139e-015
lhumerus -117.433 -204.615 225.924
lradius 66.8662
lwrist 0.882301
lhand -52.9585 19.1481
lfingers 7.12502
lthumb -25.426 47.4724
rfemur 8.33391 -13.9603 17.0046
rtibia 21.1211
rfoot 0.828631 2.66249
rtoes -7.87065
lfemur 4.72867 11.1594 -4.59163
ltibia 29.1869
lfoot -5.43361 -20.0088
ltoes -3.49109
74
root 4.35943 24.9253 -17.1358 -3.18516 2.57073 -6.2272
lowerback 16.3714 2.4476 9.72683
upperback 1.54057 5.58482 7.22685
thorax -7.36086 2.51861 1.07752
lowerneck -15.4377 -10.0941 -27.9002
upperneck 13.9004 -9.64307 13.2017
head 8.94886 -4.92861 7.73537
rclavicle -7.21588e-014 -1.08139e-013
rhumerus 49.9298 -25.7592 351.287
rradius 69.6712
rwrist 22.2816
rhand -40.1148 -24.2154
rfingers 7.12502
rthumb -13.0785 -53.7854
lclavicle -7.21588e-014 -1.08139e-013
lhumerus -118.307 -204.069 225.301
lradius 67.205
lwrist 0.689756
lhand -52.8836 18.5169
lfingers 7.12502
lthumb -25.3542 46.8513
rfemur 7.95425 -13.8799 17.0824
rtibia 20.9768
rfoot 0.80601 2.36053
rtoes -7.93487
lfemur 4.41075 11.3781 -4.42019
ltibia 29.0075
lfoot -5.36739 -19.5865
ltoes -3.4917
75
root 4.36839 24.8481 -17.1388 -3.06471 2.59977 -6.21545
lowerback 16.3377 2.44506 9.72997
upperback 1.47627 5.58857 7.263
thorax -7.41651 2.51776 1.11497
lowerneck -14.9554 -9.85849 -27.863
upperneck 13.3216 -9.43584 13.1782
head 8.61767 -4.82252 7.75464
rclavicle 5.56597e-015 -1.59028e-014
rhumerus 49.5197 -24.7208 351.605
rradius 69.8249
rwrist 22.038
rhand -40.2621 -24.6789
rfingers 7.12502
rthumb -13.2204 -54.2397
lclavicle 5.56597e-015 -1.59028e-014
lhumerus -119.337 -203.168 224.56
lradius 67.4844
lwrist -0.136321
lhand -53.19 20.2772
lfingers 7.12502
lthumb -25.6477 48.5697
rfemur 7.58262 -14.0272 17.0615
rtibia 20.7754
rfoot 0.969674 2.42425
rtoes -8.30577
lfemur 4.15518 11.8088 -4.22719
ltibia 28.8711
lfoot -5.38678 -19.1822
ltoes -3.63284
